<?xml version="1.0" encoding="UTF-8"?>
<svg id="Layer_1" xmlns="http://www.w3.org/2000/svg" version="1.1" viewBox="0 0 301 301">
  <!-- Generator: Adobe Illustrator 29.3.1, SVG Export Plug-In . SVG Version: 2.1.0 Build 151)  -->
  <path d="M218.9,217.1c-1.4-2.2-3.8-3.5-6.4-3.5h-17.2s0,0,0,0h-17.6c-2.3,0-4.5-1.2-5.7-3.1l-19.1-29.5c-1.5-2.3-4-3.6-6.7-3.6h-43s-14.4,0-14.4,0c-2.1,0-3.7,1.7-3.7,3.7v47c0,2.1,1.7,3.7,3.7,3.7h53.9l-9.4-14.6c-1.4-2.2-3.8-3.5-6.4-3.5h-21.4c-1.2,0-2.3-1-2.3-2.3v-13.7c0-1.2,1-2.3,2.3-2.3h32.4c1.8,0,3.4.9,4.4,2.4l20,31c1.2,1.8,3.2,2.9,5.4,2.9h18.1,0s42.6,0,42.6,0l-9.5-14.6Z"/>
  <path d="M153,120l19.1-29.6c1.3-1.9,3.4-3.1,5.7-3.1h17.6,0s17.4,0,17.4,0c2.6,0,5.1-1.3,6.5-3.6l9.2-14.6h-42.6,0s-18.1,0-18.1,0c-2.2,0-4.2,1.1-5.4,2.9l-20,31c-1,1.5-2.6,2.4-4.4,2.4h-32.4c-1.2,0-2.3-1-2.3-2.3v-13.7c0-1.2,1-2.3,2.3-2.3h21.4c2.6,0,5-1.3,6.4-3.5l9.4-14.6h-53.9c-2.1,0-3.7,1.7-3.7,3.7v47c0,2.1,1.7,3.7,3.7,3.7h57.4c2.7,0,5.2-1.4,6.7-3.6Z"/>
  <path d="M187.3,195.5h17.9l-27.2-42.2c-1.1-1.7-1.1-3.9,0-5.6l27.2-42.2h-17.9c-2.3,0-4.5,1.2-5.7,3.1l-19.7,30.4c-.9,1.5-2.6,2.4-4.3,2.4h-70.4c-1.2,0-2.1.9-2.1,2.1v14c0,1.1.9,2.1,2.1,2.1h70.4c1.8,0,3.4.9,4.3,2.4l19.7,30.4c1.3,1.9,3.4,3.1,5.7,3.1Z"/>
</svg>