<?xml version="1.0" encoding="UTF-8"?><svg id="Layer_1" xmlns="http://www.w3.org/2000/svg" viewBox="0 0 435.75 346.21"><defs><style>.cls-1{fill:#fff;stroke:#000;stroke-miterlimit:10;stroke-width:3px;}</style></defs><path class="cls-1" d="M137.42,163.55c-2.14,0-31.31-20.12-38.17-19.69-5.91,0-28.08,19.79-30.74,21.15-1.2,.61-2.31,1.42-3.19,2.44-2.4,2.78-4.57,7.07-4.57,8.09q-.43,1.28-1.29,1.28c-1.71,0-3.43,.43-4.28-.43s-7.28-16.27-11.14-28.69c-3.85-11.56-11.56-32.98-11.56-33.83-.43-.86-.43-2.14,.86-2.57,.01,0,.03,0,.04-.01,2.11-.69,4.39-.6,6.5,.1,1.64,.54,3.94,1.34,7.17,2.48,7.71,2.57,11.56,3.43,23.98,4.71,11.99,1.71,41.97,2.57,51.39,2.57,10.28,0,19.57,8.83,19.5,7.12-.16-3.85,.89-10.18,.89-11.47,0-.86,.08-26.06,.08-27.78-.43-1.29-4.82,21.49-6.97,21.49s-36.51-23.37-52.05-24.91c-9.39-.93-20.13,.86-29.12,4.28-8.14,3-9.42,3.85-10.28,4.28q-1.29,.86-3,1.29c-1.71,0-3.43,0-4.28-.86-1.28-.86-2.14-1.71-.86-4.71,1.29-3,11.37-17.47,15.22-27.32,4.28-9.85-19.74-27.5-22.3-29.84C27.86,31.42-1.65,1.5,1.78,1.5c2.57,0,64.55,32.71,66.26,33.57,1.95,.78,4.6,2.97,7.32,4.33,.54,.27,1.11,.47,1.69,.63,2.75,.77,5.83,1.51,12.41,1.89,6.85,.43,15.42,2.14,47.11,2.14,30.84,.43,68.52,.86,71.52,.86,3.43,.43,5.57,.86,4.28,2.57-1.26,2.11-10,14.59-14.36,20.7-.14,.2-.26,.38-.39,.59-3.86,6.36-9.69,13.85-10.95,15.54-.86,1.71-1.29,2.57-1.29,4.71,0,3-1.71,45.83-1.28,64.24,0,13.84,.43,75.52,.43,98.93,.43,19.27,.43,44.54,.43,46.68,0,3-.43,4.71,.86,6.85,1.29,2.14,6,11.13,11.56,19.7,6,8.99,10.28,14.99,11.56,16.7,1.28,1.28,1.28,2.57-.86,2.57h-43.26c-12.85-.43-47.54-.86-49.68-.86-1.71,0-3-.43-2.14-2.14,1.28-1.29,3.85-6.43,11.99-16.7,7.71-10.28,12.85-18.42,14.13-19.7,.86-1.29,1.29-1.71,1.29-3.85,0-2.57-.43-35.12-1.29-69.38-1.29-34.26,.43-65.53,.43-67.24,0-1.28-1.28-1.28-2.14-1.28Z"/><path class="cls-1" d="M290.57,164.66c0,1.71,1.71,32.98,.43,67.24-.86,34.26-1.28,66.81-1.28,69.38,0,2.14,.43,2.57,1.28,3.85,1.28,1.28,6.42,9.42,14.13,19.7,8.14,10.28,10.71,15.42,11.99,16.7,.86,1.71-.43,2.14-2.14,2.14-2.14,0-36.83,.43-49.68,.86h-43.26c-2.14,0-2.14-1.29-.86-2.57,1.28-1.71,5.57-7.71,11.56-16.7,5.57-8.57,10.28-17.56,11.56-19.7,1.28-2.14,.86-3.85,.86-6.85,0-2.14,0-27.41,.43-46.68,0-18.42,.43-80.09,.43-98.93,.43-18.42-1.28-61.24-1.28-64.24,0-2.14-.43-3-1.28-4.71-1.29-1.71-7.28-9.42-11.14-15.85-4.28-6-13.28-18.84-14.56-20.99-1.28-1.71,.86-2.14,4.28-2.57,3,0,40.69-.43,71.52-.86,31.69,0,40.26-1.71,47.11-2.14,7.28-.43,10.28-1.28,13.28-2.14,3-1.28,9.21-2.42,11.35-3.27,1.71-.86,66.18-34.65,68.76-34.65,3.42,0-41.48,41.4-43.37,43.22-1.38,1.33-11.04,7.97-6.76,17.83,3.85,9.85,8.57,23.98,9.85,26.98,1.28,3,.43,3.85-.86,4.71-.86,.86-2.57,.86-4.28,.86q-1.71-.43-3-1.29c-.86-.43-2.14-1.28-10.28-4.28-8.99-3.43-20.24-4.87-35.18-1.73-9.65,2.02-44.84,20.85-46.98,20.85s-4.67-15.58-4.78-16.93c-.52-6.75-1.27-4.37-1.86,21.23,0,0-1.62,19.13,2.46,14.04,1.07-1.34,8.39-6.19,18.67-6.19,9.42,0,39.4-.86,51.39-2.57,12.42-1.29,16.27-2.14,23.98-4.71,7.28-2.57,9.85-3.43,10.71-3.43,.86,.43,1.71,.43,3,.86s1.28,1.71,.86,2.57c0,.86-7.71,22.27-11.56,33.83-3.85,12.42-10.28,27.84-11.14,28.69-.86,.86-2.57,.43-4.28,.43q-.86,0-1.28-1.28c0-1.29-3.43-7.71-6.42-9.85-3.43-1.71-27.96-18.73-34.81-18.73-6.85-.43-33.28,16.59-35.43,16.59-.86,0-2.14,0-2.14,1.28Z"/></svg>