<?xml version="1.0" encoding="UTF-8"?>
<!DOCTYPE svg PUBLIC "-//W3C//DTD SVG 1.1//EN" "http://www.w3.org/Graphics/SVG/1.1/DTD/svg11.dtd">
<svg xmlns="http://www.w3.org/2000/svg" version="1.1" width="2186px" height="1639px" style="shape-rendering:geometricPrecision; text-rendering:geometricPrecision; image-rendering:optimizeQuality; fill-rule:evenodd; clip-rule:evenodd" xmlns:xlink="http://www.w3.org/1999/xlink">
<g><path style="opacity:0.993; background-color: lime;" fill="rgb(110, 231, 183)" stroke="#000" stroke-width="5px" d="M 1148.5,117.5 C 1149.55,117.351 1150.55,117.517 1151.5,118C 1438.33,404.833 1725.17,691.667 2012,978.5C 2012.83,999.74 2012.66,1020.91 2011.5,1042C 1888.59,1103.37 1765.76,1164.87 1643,1226.5C 1602.58,1206.04 1562.08,1185.71 1521.5,1165.5C 1520.83,1206.4 1520.16,1247.23 1519.5,1288C 1396.73,1349.72 1273.73,1410.89 1150.5,1471.5C 863.274,1328.89 576.274,1185.72 289.5,1042C 288.168,877.235 288.168,712.402 289.5,547.5C 411.833,486.333 534.167,425.167 656.5,364C 658.167,363.333 659.833,363.333 661.5,364C 701.066,374.308 740.732,384.141 780.5,393.5C 780.167,362.826 780.5,332.159 781.5,301.5C 904.049,240.392 1026.38,179.059 1148.5,117.5 Z M 1149.5,241.5 C 1395.63,487.132 1641.63,732.965 1887.5,979C 1806.12,1020.52 1724.45,1061.19 1642.5,1101C 1478.67,937.167 1314.83,773.333 1151,609.5C 1150.5,670.832 1150.33,732.166 1150.5,793.5C 1110.07,784.143 1069.74,774.31 1029.5,764C 1008.17,763.5 986.836,763.333 965.5,763.5C 965.333,774.172 965.5,784.839 966,795.5C 1109.17,938.667 1252.33,1081.83 1395.5,1225C 1314.22,1266.22 1232.72,1307.06 1151,1347.5C 904.693,1102.36 658.859,856.693 413.5,610.5C 495.116,569.109 576.95,528.109 659,487.5C 740.753,508.23 822.587,528.563 904.5,548.5C 904.333,487.166 904.5,425.832 905,364.5C 986.639,323.598 1068.14,282.598 1149.5,241.5 Z"/></g>
</svg>
